%FSLAX23Y23*%
%MOIN*%
G70*
G01*
G75*
%ADD10R,0.063X0.040*%
%ADD11R,0.050X0.040*%
%ADD12R,0.040X0.063*%
%ADD13R,0.040X0.050*%
%ADD14C,0.015*%
%ADD15C,0.025*%
%ADD16C,0.030*%
%ADD17C,0.010*%
%ADD18C,0.020*%
%ADD19C,0.008*%
%ADD20C,0.050*%
%ADD21C,0.062*%
%ADD22C,0.065*%
%ADD23C,0.180*%
%ADD24C,0.125*%
%ADD25C,0.075*%
%ADD26C,0.100*%
%ADD27C,0.069*%
%ADD28C,0.070*%
%ADD29R,0.062X0.062*%
%ADD30R,0.040X0.065*%
%ADD31R,0.065X0.040*%
%ADD32C,0.040*%
%ADD33R,0.040X0.062*%
%ADD34R,0.062X0.040*%
%ADD35C,0.009*%
%ADD36C,0.012*%
%ADD37C,0.007*%
D19*
X9578Y7420D02*
X9637D01*
Y7450D01*
X9627Y7460D01*
X9607D01*
X9597Y7450D01*
Y7420D01*
Y7440D02*
X9578Y7460D01*
X9637Y7480D02*
Y7520D01*
X9627D01*
X9587Y7480D01*
X9578D01*
Y7581D02*
X9637D01*
Y7610D01*
X9627Y7620D01*
X9607D01*
X9597Y7610D01*
Y7581D01*
Y7600D02*
X9578Y7620D01*
X9637Y7680D02*
Y7640D01*
X9607D01*
X9617Y7660D01*
Y7670D01*
X9607Y7680D01*
X9587D01*
X9578Y7670D01*
Y7650D01*
X9587Y7640D01*
X9578Y7811D02*
X9637D01*
Y7840D01*
X9627Y7850D01*
X9607D01*
X9597Y7840D01*
Y7811D01*
Y7830D02*
X9578Y7850D01*
X9627Y7870D02*
X9637Y7880D01*
Y7900D01*
X9627Y7910D01*
X9617D01*
X9607Y7900D01*
Y7890D01*
Y7900D01*
X9597Y7910D01*
X9587D01*
X9578Y7900D01*
Y7880D01*
X9587Y7870D01*
X9578Y8005D02*
X9637D01*
Y8035D01*
X9627Y8045D01*
X9607D01*
X9597Y8035D01*
Y8005D01*
Y8025D02*
X9578Y8045D01*
Y8065D02*
Y8085D01*
Y8075D01*
X9637D01*
X9627Y8065D01*
X9382Y8304D02*
X9323D01*
Y8275D01*
X9333Y8265D01*
X9353D01*
X9363Y8275D01*
Y8304D01*
Y8285D02*
X9382Y8265D01*
Y8245D02*
Y8225D01*
Y8235D01*
X9323D01*
X9333Y8245D01*
X9382Y8155D02*
Y8195D01*
X9343Y8155D01*
X9333D01*
X9323Y8165D01*
Y8185D01*
X9333Y8195D01*
X9795Y8387D02*
Y8447D01*
X9765D01*
X9755Y8437D01*
Y8417D01*
X9765Y8407D01*
X9795D01*
X9775D02*
X9755Y8387D01*
X9735D02*
X9715D01*
X9725D01*
Y8447D01*
X9735Y8437D01*
X9685Y8387D02*
X9665D01*
X9675D01*
Y8447D01*
X9685Y8437D01*
X10479Y8472D02*
Y8532D01*
X10450D01*
X10440Y8522D01*
Y8502D01*
X10450Y8492D01*
X10479D01*
X10460D02*
X10440Y8472D01*
X10420D02*
X10400D01*
X10410D01*
Y8532D01*
X10420Y8522D01*
X10340Y8472D02*
Y8532D01*
X10370Y8502D01*
X10330D01*
X9542Y8510D02*
Y8570D01*
X9512D01*
X9502Y8560D01*
Y8540D01*
X9512Y8530D01*
X9542D01*
X9522D02*
X9502Y8510D01*
X9482D02*
X9462D01*
X9472D01*
Y8570D01*
X9482Y8560D01*
X9432Y8520D02*
X9422Y8510D01*
X9402D01*
X9392Y8520D01*
Y8560D01*
X9402Y8570D01*
X9422D01*
X9432Y8560D01*
Y8550D01*
X9422Y8540D01*
X9392D01*
X10431Y8189D02*
X10490D01*
Y8218D01*
X10480Y8228D01*
X10460D01*
X10450Y8218D01*
Y8189D01*
Y8208D02*
X10431Y8228D01*
Y8288D02*
Y8248D01*
X10470Y8288D01*
X10480D01*
X10490Y8278D01*
Y8258D01*
X10480Y8248D01*
Y8308D02*
X10490Y8318D01*
Y8338D01*
X10480Y8348D01*
X10440D01*
X10431Y8338D01*
Y8318D01*
X10440Y8308D01*
X10480D01*
M02*
