%FSLAX23Y23*%
%MOIN*%
G70*
G01*
G75*
%ADD10R,0.063X0.040*%
%ADD11R,0.050X0.040*%
%ADD12R,0.040X0.063*%
%ADD13R,0.040X0.050*%
%ADD14C,0.015*%
%ADD15C,0.025*%
%ADD16C,0.030*%
%ADD17C,0.010*%
%ADD18C,0.020*%
%ADD19C,0.008*%
%ADD20C,0.050*%
%ADD21C,0.062*%
%ADD22C,0.065*%
%ADD23C,0.180*%
%ADD24C,0.125*%
%ADD25C,0.075*%
%ADD26C,0.100*%
%ADD27C,0.069*%
%ADD28C,0.070*%
%ADD29R,0.062X0.062*%
%ADD30R,0.040X0.065*%
%ADD31R,0.065X0.040*%
%ADD32C,0.040*%
%ADD33R,0.040X0.062*%
%ADD34R,0.062X0.040*%
D13*
X10613Y8403D02*
D03*
X10533D02*
D03*
X10573Y8302D02*
D03*
X10627Y8047D02*
D03*
X10557D02*
D03*
X10698D02*
D03*
D14*
X10632Y7282D02*
X10658Y7258D01*
X10613Y8403D02*
X10653Y8363D01*
X10632Y7282D02*
Y7338D01*
X10653Y8262D02*
Y8363D01*
X10608Y7363D02*
X10632Y7338D01*
X10398Y7568D02*
X10432Y7602D01*
X10323Y7907D02*
X10347Y7932D01*
X10547Y7968D02*
Y8038D01*
X10347Y8278D02*
Y8328D01*
Y8142D02*
Y8208D01*
X9767Y8312D02*
X9807D01*
X10533Y8403D02*
X10613D01*
X9523Y8427D02*
X9727D01*
X10273Y7102D02*
X10307Y7137D01*
X10017Y7608D02*
X10057Y7568D01*
X10017Y7153D02*
Y7298D01*
X10153Y7568D02*
Y7622D01*
X9762Y8057D02*
X9788D01*
X10113Y8158D02*
X10127D01*
X9953Y7363D02*
X10017Y7298D01*
X9788Y8057D02*
X9842Y8113D01*
X9807Y8312D02*
X9842Y8278D01*
X9767Y7952D02*
X9812Y7907D01*
X9717Y7628D02*
X9738Y7608D01*
X9672Y7758D02*
X9717Y7713D01*
X9727Y8427D02*
X9767Y8387D01*
Y8158D02*
Y8238D01*
X9842Y8113D02*
Y8278D01*
X9717Y7628D02*
Y7713D01*
X9767Y8318D02*
Y8387D01*
X9812Y7907D02*
X10323D01*
X9632Y7758D02*
X9672D01*
X9337Y7227D02*
Y7392D01*
X10528Y7363D02*
X10608D01*
X9917D02*
X9953D01*
X10208Y7568D02*
X10398D01*
X9762Y7608D02*
X9993D01*
X9738D02*
X9792D01*
X9137Y7412D02*
X9318D01*
X9993Y7608D02*
X10017D01*
X10057Y7568D02*
X10222D01*
X9087Y8498D02*
X9142Y8552D01*
X9087Y7463D02*
X9137Y7412D01*
X9318D02*
X9337Y7392D01*
X9087Y7463D02*
Y8498D01*
X10658Y7258D02*
X10717D01*
X9462Y7102D02*
X10273D01*
X9337Y7227D02*
X9462Y7102D01*
X10653Y8262D02*
X10797Y8118D01*
D16*
X10917Y7168D02*
Y7847D01*
X10448Y8913D02*
X10462D01*
X9998D02*
X10448D01*
X10193Y8788D02*
X10302D01*
X10502D02*
Y8873D01*
X10312Y7142D02*
Y7222D01*
X10068Y8552D02*
Y8663D01*
X9932Y8057D02*
X10102D01*
X10153Y8193D02*
X10167D01*
X9932Y8158D02*
X10118D01*
X10792Y7912D02*
X10852D01*
X10368Y7088D02*
X10837D01*
X10493Y8882D02*
X10502Y8873D01*
X10462Y8913D02*
X10493Y8882D01*
X9932Y8847D02*
X9998Y8913D01*
X10068Y8663D02*
X10193Y8788D01*
X10102Y8057D02*
X10167Y7992D01*
X10118Y8158D02*
X10153Y8193D01*
X10312Y7142D02*
X10368Y7088D01*
X10837D02*
X10917Y7168D01*
X10852Y7912D02*
X10917Y7847D01*
D17*
X10977Y8828D02*
Y8972D01*
X10972Y7012D02*
Y7113D01*
X9012Y8977D02*
X9212D01*
X10812Y8972D02*
X10972D01*
X10812D02*
X10977D01*
X10333Y7767D02*
X10347Y7782D01*
X10302D02*
X10318Y7767D01*
X10302Y7798D02*
X10318Y7812D01*
X10333D02*
X10347Y7827D01*
X10333Y7858D02*
X10347Y7843D01*
X10302D02*
X10318Y7858D01*
X10302Y7782D02*
Y7798D01*
X10347Y7827D02*
Y7843D01*
X10102Y7782D02*
X10118Y7767D01*
X10102Y7843D02*
X10118Y7858D01*
X10188Y7767D02*
X10203Y7782D01*
X10262Y7858D02*
X10278Y7843D01*
X10233D02*
X10248Y7858D01*
X10233Y7782D02*
X10248Y7767D01*
X10262D02*
X10278Y7782D01*
X10153Y7622D02*
X10172Y7617D01*
X10102Y7782D02*
Y7787D01*
Y7843D01*
X10148Y7767D02*
Y7858D01*
X10203Y7782D02*
Y7858D01*
X10233Y7782D02*
Y7843D01*
X10278Y7782D02*
Y7843D01*
X10323Y8142D02*
X10347D01*
X10118Y7767D02*
X10148D01*
X10118Y7858D02*
X10148D01*
X10172Y7767D02*
X10188D01*
X10248Y7858D02*
X10262D01*
X10248Y7767D02*
X10262D01*
X10318D02*
X10333D01*
X10318Y7812D02*
X10333D01*
X10318Y7858D02*
X10333D01*
X10743Y7718D02*
X10792D01*
X10773D02*
X10797D01*
X9012Y7012D02*
Y7213D01*
Y8778D02*
Y8977D01*
Y7012D02*
X9212D01*
X10873Y7023D02*
X10972D01*
D18*
X9448Y8613D02*
X9457Y8613D01*
X9467Y8615D01*
X9477Y8618D01*
X9486Y8622D01*
X9494Y8626D01*
X9502Y8632D01*
X9509Y8639D01*
X9516Y8647D01*
X9521Y8655D01*
X9526Y8664D01*
X9529Y8673D01*
X9531Y8683D01*
X9532Y8693D01*
Y8702D01*
X9531Y8712D01*
X9529Y8722D01*
X9526Y8731D01*
X9521Y8740D01*
X9516Y8748D01*
X9509Y8756D01*
X9502Y8763D01*
X9494Y8769D01*
X9486Y8773D01*
X9477Y8777D01*
X9467Y8780D01*
X9457Y8782D01*
X9448Y8783D01*
X9328Y8613D02*
X9337Y8613D01*
X9347Y8615D01*
X9357Y8618D01*
X9366Y8622D01*
X9374Y8626D01*
X9382Y8632D01*
X9389Y8639D01*
X9396Y8647D01*
X9401Y8655D01*
X9406Y8664D01*
X9409Y8673D01*
X9411Y8683D01*
X9412Y8693D01*
Y8702D01*
X9411Y8712D01*
X9409Y8722D01*
X9406Y8731D01*
X9401Y8740D01*
X9396Y8748D01*
X9389Y8756D01*
X9382Y8763D01*
X9374Y8769D01*
X9366Y8773D01*
X9357Y8777D01*
X9347Y8780D01*
X9337Y8782D01*
X9328Y8783D01*
X10632Y7932D02*
X10693Y7992D01*
X10627Y8083D02*
X10653Y8108D01*
X10632Y7528D02*
Y7932D01*
X10693Y7992D02*
Y8028D01*
X10627Y8057D02*
Y8083D01*
X10653Y8108D02*
Y8182D01*
X10632Y7523D02*
Y7548D01*
X9342Y8698D02*
X9413D01*
X10347Y7938D02*
X10368Y7918D01*
X10573Y8262D02*
X10653Y8182D01*
X10592Y7483D02*
X10632Y7523D01*
X10347Y7938D02*
Y8142D01*
Y8323D02*
Y8542D01*
X10448Y8392D02*
Y8547D01*
X10573Y8262D02*
Y8302D01*
X9932Y8358D02*
X10132D01*
X10167Y8323D02*
X10448D01*
X9323Y8358D02*
X9627D01*
X9227Y8318D02*
X9283D01*
X9988Y7403D02*
X10028Y7363D01*
X10132Y8358D02*
X10167Y8323D01*
X9377Y8273D02*
X9453D01*
X9533D02*
X9587D01*
X9602Y8257D02*
X9632D01*
X9377Y8182D02*
X9523D01*
X9222Y8123D02*
X9318D01*
X9403Y8017D02*
X9443D01*
X9708Y7218D02*
Y7242D01*
X9398Y7838D02*
X9438D01*
X9417Y7688D02*
X9517D01*
X10637Y7718D02*
X10788D01*
X10542Y7867D02*
X10632D01*
X10368Y7918D02*
X10488D01*
X9382Y7593D02*
X9398Y7608D01*
X9387Y7827D02*
X9398Y7838D01*
X9587Y8273D02*
X9602Y8257D01*
X9523Y8182D02*
X9578Y8127D01*
X9387Y8002D02*
X9403Y8017D01*
X9382Y7423D02*
X9408Y7448D01*
X9382Y7548D02*
Y7593D01*
X9387Y7753D02*
Y7827D01*
X9578Y7702D02*
Y7912D01*
X9573Y7378D02*
Y7702D01*
X9578Y7912D02*
Y8127D01*
X9517Y7457D02*
Y8023D01*
X9387Y7948D02*
Y8002D01*
X9382Y7363D02*
Y7423D01*
Y7343D02*
Y7363D01*
X9453Y8358D02*
Y8413D01*
X9837Y7557D02*
X9932D01*
X10028Y7363D02*
X10318D01*
X9398Y7608D02*
X9448D01*
X9458Y7372D02*
X9573D01*
X9408Y7448D02*
X9432D01*
X9903Y7483D02*
X9983D01*
X9762Y7347D02*
X9767D01*
X9988Y7483D02*
X10592D01*
X9328Y7512D02*
X9352Y7488D01*
X9328Y7597D02*
X9417Y7688D01*
X9283Y8318D02*
X9323Y8358D01*
X9318Y8123D02*
X9377Y8182D01*
X9328Y7512D02*
Y7528D01*
Y7597D01*
X9502Y7222D02*
X9512D01*
X9727Y7448D02*
X9837Y7557D01*
X9573Y7378D02*
X9708Y7242D01*
X9382Y7343D02*
X9502Y7222D01*
X9767Y7347D02*
X9903Y7483D01*
D20*
X10488Y7918D02*
D03*
X10542Y7867D02*
D03*
Y7968D02*
D03*
X10717Y7258D02*
D03*
X10318Y7363D02*
D03*
X10528D02*
D03*
X10432Y7602D02*
D03*
X10012Y7153D02*
D03*
X9983Y7483D02*
D03*
X10153Y7622D02*
D03*
X9988Y7403D02*
D03*
X9917Y7358D02*
D03*
X9727Y7448D02*
D03*
X9762Y7347D02*
D03*
D03*
X9382Y7548D02*
D03*
X9387Y7753D02*
D03*
X9578Y7912D02*
D03*
X9573Y7702D02*
D03*
X9458Y7372D02*
D03*
X9377Y8273D02*
D03*
Y8182D02*
D03*
X9387Y7948D02*
D03*
X9352Y7483D02*
D03*
D21*
X10837Y7193D02*
D03*
X10752Y7153D02*
D03*
X9632Y8257D02*
D03*
Y8158D02*
D03*
Y8057D02*
D03*
Y7957D02*
D03*
Y7858D02*
D03*
Y7758D02*
D03*
Y7657D02*
D03*
Y7557D02*
D03*
X9932D02*
D03*
Y7657D02*
D03*
Y7758D02*
D03*
Y7858D02*
D03*
Y7957D02*
D03*
Y8057D02*
D03*
Y8158D02*
D03*
Y8257D02*
D03*
Y8358D02*
D03*
X10167Y7992D02*
D03*
Y8193D02*
D03*
D22*
X10358Y7662D02*
D03*
X10257D02*
D03*
D23*
X10828Y8828D02*
D03*
X9167Y7162D02*
D03*
D24*
X9227Y7517D02*
D03*
Y7718D02*
D03*
Y7918D02*
D03*
Y8318D02*
D03*
X9222Y8118D02*
D03*
X10502Y8788D02*
D03*
X10302D02*
D03*
X10792Y7517D02*
D03*
Y7718D02*
D03*
Y7918D02*
D03*
Y8118D02*
D03*
Y8517D02*
D03*
X10788Y8318D02*
D03*
X10512Y7222D02*
D03*
X10312D02*
D03*
X10113D02*
D03*
X9913D02*
D03*
X9512D02*
D03*
X9712Y7218D02*
D03*
D25*
X9142Y8552D02*
D03*
Y8847D02*
D03*
X9203D02*
D03*
Y8552D02*
D03*
X10552Y8142D02*
D03*
Y8542D02*
D03*
X10448Y8142D02*
D03*
Y8542D02*
D03*
X10347Y8142D02*
D03*
Y8542D02*
D03*
D26*
X9931Y8847D02*
D03*
X10068Y8552D02*
D03*
X9903D02*
D03*
X9602D02*
D03*
D27*
X9792D02*
D03*
X9802Y8847D02*
D03*
D28*
X9762Y8158D02*
D03*
Y8057D02*
D03*
Y7957D02*
D03*
Y7858D02*
D03*
Y7758D02*
D03*
D29*
X9632Y8358D02*
D03*
D30*
X9438Y7452D02*
D03*
X9507D02*
D03*
X9438Y7613D02*
D03*
X9507D02*
D03*
X9438Y7843D02*
D03*
X9507D02*
D03*
X9438Y8038D02*
D03*
X9507D02*
D03*
X9523Y8273D02*
D03*
X9453D02*
D03*
D31*
X9762Y8248D02*
D03*
Y8318D02*
D03*
X10448Y8333D02*
D03*
Y8403D02*
D03*
D32*
X10068Y8552D02*
X10092D01*
D33*
X9521Y8429D02*
D03*
X9446D02*
D03*
D34*
X10349Y8208D02*
D03*
Y8283D02*
D03*
M02*
