M72
M48
T1F00S00C0.028
T2F00S00C0.039
T3F00S00C0.130
T4F00S00C0.051
T5F00S00C0.043
%
T01
X00445Y0036
X0034Y0047
X0037Y00535
X00375Y0074
Y00935
X00565Y009
X0062Y00945
Y01045
Y01145
Y01245
Y01345
X0092
Y01245
Y01145
Y01045
Y00945
Y00845
Y00745
Y00645
Y00545
X0097Y0047
X00975Y0039
X00905Y00345
X0075Y00335
X00715Y00435
X0062Y00545
Y00645
Y00745
Y00845
X0056Y0069
X0114Y0061
X0142Y0059
X01515Y0035
X01305
X01Y0014
X01475Y00905
X0153Y00855
Y00955
X00365Y0117
Y0126
X01705Y00245
T02
X01245Y0065
X01345
X01335Y0113
X01155Y0118
Y0098
X01335Y0153
X0174Y0014
X01825Y0018
T03
X00155Y0015
X01815Y01815
T04
X005Y0021
X007Y00205
X009Y0021
X011
X013
X015
X00215Y00505
Y00705
Y00905
X0021Y01105
X00215Y01305
X0019Y0154
X0013
X0059
X0078
X0089
X01055
X0178Y01505
X01775Y01305
X0178Y01105
Y00905
Y00705
Y00505
X0149Y01775
X0129
X00918Y01835
X0079
X0019
X0013
T05
X0075Y00745
Y00845
Y00945
Y01045
Y01145
X01435Y0113
X0154
Y0153
X01435
M30
