%FSLAX23Y23*%
%MOIN*%
G70*
G01*
G75*
%ADD10R,0.063X0.040*%
%ADD11R,0.050X0.040*%
%ADD12R,0.040X0.063*%
%ADD13R,0.040X0.050*%
%ADD14C,0.015*%
%ADD15C,0.025*%
%ADD16C,0.030*%
%ADD17C,0.010*%
%ADD18C,0.020*%
%ADD19C,0.008*%
%ADD20C,0.050*%
%ADD21C,0.062*%
%ADD22C,0.065*%
%ADD23C,0.180*%
%ADD24C,0.125*%
%ADD25C,0.075*%
%ADD26C,0.100*%
%ADD27C,0.069*%
%ADD28C,0.070*%
%ADD29R,0.062X0.062*%
%ADD30R,0.040X0.065*%
%ADD31R,0.065X0.040*%
%ADD32C,0.040*%
%ADD33R,0.040X0.062*%
%ADD34R,0.062X0.040*%
%ADD35C,0.009*%
%ADD36C,0.012*%
%ADD37C,0.007*%
D14*
X9248Y7383D02*
X9238Y7381D01*
X9229Y7378D01*
X9221Y7372D01*
X9215Y7365D01*
X9210Y7357D01*
X9208Y7347D01*
Y7338D01*
X9210Y7328D01*
X9215Y7320D01*
X9221Y7313D01*
X9229Y7307D01*
X9238Y7304D01*
X9248Y7302D01*
X9193Y7383D02*
X9183Y7381D01*
X9174Y7378D01*
X9166Y7372D01*
X9160Y7365D01*
X9155Y7357D01*
X9153Y7347D01*
Y7338D01*
X9155Y7328D01*
X9160Y7320D01*
X9166Y7313D01*
X9174Y7307D01*
X9183Y7304D01*
X9193Y7302D01*
X9212Y7343D02*
X9243D01*
X10517Y8288D02*
X10587D01*
X10413D02*
X10488D01*
X10307Y8403D02*
X10382D01*
D17*
X10877Y7168D02*
X10877Y7178D01*
X10875Y7187D01*
X10872Y7197D01*
X10868Y7206D01*
X10863Y7215D01*
X10857Y7223D01*
X10850Y7230D01*
X10842Y7237D01*
X10834Y7242D01*
X10824Y7246D01*
X10815Y7249D01*
X10805Y7252D01*
X10795Y7252D01*
X10785Y7252D01*
X10775Y7251D01*
X10765Y7248D01*
X10756Y7244D01*
X10747Y7239D01*
X10739Y7234D01*
X10732Y7227D01*
X10725Y7219D01*
X10719Y7211D01*
X10715Y7202D01*
X10711Y7192D01*
X10709Y7183D01*
X10708Y7173D01*
Y7162D01*
X10709Y7152D01*
X10711Y7143D01*
X10715Y7133D01*
X10719Y7124D01*
X10725Y7116D01*
X10732Y7108D01*
X10739Y7101D01*
X10747Y7096D01*
X10756Y7091D01*
X10765Y7087D01*
X10775Y7084D01*
X10785Y7083D01*
X10795Y7083D01*
X10805Y7083D01*
X10815Y7086D01*
X10824Y7089D01*
X10834Y7093D01*
X10842Y7098D01*
X10850Y7105D01*
X10857Y7112D01*
X10863Y7120D01*
X10868Y7129D01*
X10872Y7138D01*
X10875Y7148D01*
X10877Y7157D01*
X10877Y7168D01*
X10398Y7662D02*
X10397Y7672D01*
X10395Y7682D01*
X10393Y7692D01*
X10389Y7701D01*
X10384Y7710D01*
X10379Y7718D01*
X10372Y7725D01*
X10365Y7732D01*
X10357Y7738D01*
X10348Y7743D01*
X10339Y7747D01*
X10330Y7750D01*
X10320Y7752D01*
X10310Y7752D01*
X10300Y7752D01*
X10290Y7751D01*
X10281Y7748D01*
X10271Y7745D01*
X10262Y7740D01*
X10254Y7735D01*
X10247Y7729D01*
X10240Y7722D01*
X10234Y7714D01*
X10228Y7705D01*
X10224Y7696D01*
X10221Y7687D01*
X10219Y7677D01*
X10218Y7667D01*
Y7658D01*
X10219Y7648D01*
X10221Y7638D01*
X10224Y7629D01*
X10228Y7620D01*
X10234Y7611D01*
X10240Y7603D01*
X10247Y7596D01*
X10254Y7590D01*
X10262Y7585D01*
X10271Y7580D01*
X10281Y7577D01*
X10290Y7574D01*
X10300Y7573D01*
X10310Y7573D01*
X10320Y7573D01*
X10330Y7575D01*
X10339Y7578D01*
X10348Y7582D01*
X10357Y7587D01*
X10365Y7593D01*
X10372Y7600D01*
X10379Y7607D01*
X10384Y7615D01*
X10389Y7624D01*
X10393Y7633D01*
X10395Y7643D01*
X10397Y7653D01*
X10398Y7662D01*
X9292Y8318D02*
X9292Y8327D01*
X9289Y8337D01*
X9286Y8346D01*
X9281Y8355D01*
X9274Y8363D01*
X9267Y8369D01*
X9259Y8375D01*
X9249Y8379D01*
X9240Y8381D01*
X9230Y8382D01*
X9220Y8382D01*
X9210Y8380D01*
X9201Y8377D01*
X9192Y8372D01*
X9184Y8366D01*
X9177Y8359D01*
X9172Y8351D01*
X9167Y8342D01*
X9164Y8332D01*
X9163Y8322D01*
Y8313D01*
X9164Y8303D01*
X9167Y8293D01*
X9172Y8284D01*
X9177Y8276D01*
X9184Y8269D01*
X9192Y8263D01*
X9201Y8258D01*
X9210Y8255D01*
X9220Y8253D01*
X9230Y8253D01*
X9240Y8254D01*
X9249Y8256D01*
X9259Y8260D01*
X9267Y8266D01*
X9274Y8272D01*
X9281Y8280D01*
X9286Y8289D01*
X9289Y8298D01*
X9292Y8308D01*
X9292Y8318D01*
X9288Y8118D02*
X9287Y8127D01*
X9284Y8137D01*
X9281Y8146D01*
X9276Y8155D01*
X9269Y8163D01*
X9262Y8169D01*
X9254Y8175D01*
X9244Y8179D01*
X9235Y8181D01*
X9225Y8182D01*
X9215Y8182D01*
X9205Y8180D01*
X9196Y8177D01*
X9187Y8172D01*
X9179Y8166D01*
X9172Y8159D01*
X9167Y8151D01*
X9162Y8142D01*
X9159Y8132D01*
X9158Y8122D01*
Y8113D01*
X9159Y8103D01*
X9162Y8093D01*
X9167Y8084D01*
X9172Y8076D01*
X9179Y8069D01*
X9187Y8063D01*
X9196Y8058D01*
X9205Y8055D01*
X9215Y8053D01*
X9225Y8053D01*
X9235Y8054D01*
X9244Y8056D01*
X9254Y8060D01*
X9262Y8066D01*
X9269Y8072D01*
X9276Y8080D01*
X9281Y8089D01*
X9284Y8098D01*
X9287Y8108D01*
X9288Y8118D01*
X9292Y7918D02*
X9292Y7927D01*
X9289Y7937D01*
X9286Y7946D01*
X9281Y7955D01*
X9274Y7963D01*
X9267Y7969D01*
X9259Y7975D01*
X9249Y7979D01*
X9240Y7981D01*
X9230Y7982D01*
X9220Y7982D01*
X9210Y7980D01*
X9201Y7977D01*
X9192Y7972D01*
X9184Y7966D01*
X9177Y7959D01*
X9172Y7951D01*
X9167Y7942D01*
X9164Y7932D01*
X9163Y7922D01*
Y7913D01*
X9164Y7903D01*
X9167Y7893D01*
X9172Y7884D01*
X9177Y7876D01*
X9184Y7869D01*
X9192Y7863D01*
X9201Y7858D01*
X9210Y7855D01*
X9220Y7853D01*
X9230Y7853D01*
X9240Y7854D01*
X9249Y7856D01*
X9259Y7860D01*
X9267Y7866D01*
X9274Y7872D01*
X9281Y7880D01*
X9286Y7889D01*
X9289Y7898D01*
X9292Y7908D01*
X9292Y7918D01*
Y7718D02*
X9292Y7727D01*
X9289Y7737D01*
X9286Y7746D01*
X9281Y7755D01*
X9274Y7763D01*
X9267Y7769D01*
X9259Y7775D01*
X9249Y7779D01*
X9240Y7781D01*
X9230Y7782D01*
X9220Y7782D01*
X9210Y7780D01*
X9201Y7777D01*
X9192Y7772D01*
X9184Y7766D01*
X9177Y7759D01*
X9172Y7751D01*
X9167Y7742D01*
X9164Y7732D01*
X9163Y7722D01*
Y7713D01*
X9164Y7703D01*
X9167Y7693D01*
X9172Y7684D01*
X9177Y7676D01*
X9184Y7669D01*
X9192Y7663D01*
X9201Y7658D01*
X9210Y7655D01*
X9220Y7653D01*
X9230Y7653D01*
X9240Y7654D01*
X9249Y7656D01*
X9259Y7660D01*
X9267Y7666D01*
X9274Y7672D01*
X9281Y7680D01*
X9286Y7689D01*
X9289Y7698D01*
X9292Y7708D01*
X9292Y7718D01*
Y7517D02*
X9292Y7527D01*
X9289Y7537D01*
X9286Y7546D01*
X9281Y7555D01*
X9274Y7563D01*
X9267Y7569D01*
X9259Y7575D01*
X9249Y7579D01*
X9240Y7581D01*
X9230Y7582D01*
X9220Y7582D01*
X9210Y7580D01*
X9201Y7577D01*
X9192Y7572D01*
X9184Y7566D01*
X9177Y7559D01*
X9172Y7551D01*
X9167Y7542D01*
X9164Y7532D01*
X9163Y7522D01*
Y7513D01*
X9164Y7503D01*
X9167Y7493D01*
X9172Y7484D01*
X9177Y7476D01*
X9184Y7469D01*
X9192Y7463D01*
X9201Y7458D01*
X9210Y7455D01*
X9220Y7453D01*
X9230Y7453D01*
X9240Y7454D01*
X9249Y7456D01*
X9259Y7460D01*
X9267Y7466D01*
X9274Y7472D01*
X9281Y7480D01*
X9286Y7489D01*
X9289Y7498D01*
X9292Y7508D01*
X9292Y7517D01*
X10368Y8788D02*
X10367Y8797D01*
X10364Y8807D01*
X10361Y8816D01*
X10356Y8825D01*
X10349Y8833D01*
X10342Y8839D01*
X10334Y8845D01*
X10324Y8849D01*
X10315Y8851D01*
X10305Y8852D01*
X10295Y8852D01*
X10285Y8850D01*
X10276Y8847D01*
X10267Y8842D01*
X10259Y8836D01*
X10252Y8829D01*
X10247Y8821D01*
X10242Y8812D01*
X10239Y8802D01*
X10238Y8792D01*
Y8783D01*
X10239Y8773D01*
X10242Y8763D01*
X10247Y8754D01*
X10252Y8746D01*
X10259Y8739D01*
X10267Y8733D01*
X10276Y8728D01*
X10285Y8725D01*
X10295Y8723D01*
X10305Y8723D01*
X10315Y8724D01*
X10324Y8726D01*
X10334Y8730D01*
X10342Y8736D01*
X10349Y8742D01*
X10356Y8750D01*
X10361Y8759D01*
X10364Y8768D01*
X10367Y8778D01*
X10368Y8788D01*
X10568D02*
X10567Y8797D01*
X10564Y8807D01*
X10561Y8816D01*
X10556Y8825D01*
X10549Y8833D01*
X10542Y8839D01*
X10534Y8845D01*
X10524Y8849D01*
X10515Y8851D01*
X10505Y8852D01*
X10495Y8852D01*
X10485Y8850D01*
X10476Y8847D01*
X10467Y8842D01*
X10459Y8836D01*
X10452Y8829D01*
X10447Y8821D01*
X10442Y8812D01*
X10439Y8802D01*
X10438Y8792D01*
Y8783D01*
X10439Y8773D01*
X10442Y8763D01*
X10447Y8754D01*
X10452Y8746D01*
X10459Y8739D01*
X10467Y8733D01*
X10476Y8728D01*
X10485Y8725D01*
X10495Y8723D01*
X10505Y8723D01*
X10515Y8724D01*
X10524Y8726D01*
X10534Y8730D01*
X10542Y8736D01*
X10549Y8742D01*
X10556Y8750D01*
X10561Y8759D01*
X10564Y8768D01*
X10567Y8778D01*
X10568Y8788D01*
X10858Y8517D02*
X10857Y8527D01*
X10854Y8537D01*
X10851Y8546D01*
X10846Y8555D01*
X10839Y8563D01*
X10832Y8569D01*
X10824Y8575D01*
X10814Y8579D01*
X10805Y8581D01*
X10795Y8582D01*
X10785Y8582D01*
X10775Y8580D01*
X10766Y8577D01*
X10757Y8572D01*
X10749Y8566D01*
X10742Y8559D01*
X10737Y8551D01*
X10732Y8542D01*
X10729Y8532D01*
X10728Y8522D01*
Y8513D01*
X10729Y8503D01*
X10732Y8493D01*
X10737Y8484D01*
X10742Y8476D01*
X10749Y8469D01*
X10757Y8463D01*
X10766Y8458D01*
X10775Y8455D01*
X10785Y8453D01*
X10795Y8453D01*
X10805Y8454D01*
X10814Y8456D01*
X10824Y8460D01*
X10832Y8466D01*
X10839Y8472D01*
X10846Y8480D01*
X10851Y8489D01*
X10854Y8498D01*
X10857Y8508D01*
X10858Y8517D01*
X10852Y8318D02*
X10852Y8327D01*
X10849Y8337D01*
X10846Y8346D01*
X10841Y8355D01*
X10834Y8363D01*
X10827Y8369D01*
X10819Y8375D01*
X10809Y8379D01*
X10800Y8381D01*
X10790Y8382D01*
X10780Y8382D01*
X10770Y8380D01*
X10761Y8377D01*
X10752Y8372D01*
X10744Y8366D01*
X10737Y8359D01*
X10732Y8351D01*
X10727Y8342D01*
X10724Y8332D01*
X10723Y8322D01*
Y8313D01*
X10724Y8303D01*
X10727Y8293D01*
X10732Y8284D01*
X10737Y8276D01*
X10744Y8269D01*
X10752Y8263D01*
X10761Y8258D01*
X10770Y8255D01*
X10780Y8253D01*
X10790Y8253D01*
X10800Y8254D01*
X10809Y8256D01*
X10819Y8260D01*
X10827Y8266D01*
X10834Y8272D01*
X10841Y8280D01*
X10846Y8289D01*
X10849Y8298D01*
X10852Y8308D01*
X10852Y8318D01*
X10858Y8118D02*
X10857Y8127D01*
X10854Y8137D01*
X10851Y8146D01*
X10846Y8155D01*
X10839Y8163D01*
X10832Y8169D01*
X10824Y8175D01*
X10814Y8179D01*
X10805Y8181D01*
X10795Y8182D01*
X10785Y8182D01*
X10775Y8180D01*
X10766Y8177D01*
X10757Y8172D01*
X10749Y8166D01*
X10742Y8159D01*
X10737Y8151D01*
X10732Y8142D01*
X10729Y8132D01*
X10728Y8122D01*
Y8113D01*
X10729Y8103D01*
X10732Y8093D01*
X10737Y8084D01*
X10742Y8076D01*
X10749Y8069D01*
X10757Y8063D01*
X10766Y8058D01*
X10775Y8055D01*
X10785Y8053D01*
X10795Y8053D01*
X10805Y8054D01*
X10814Y8056D01*
X10824Y8060D01*
X10832Y8066D01*
X10839Y8072D01*
X10846Y8080D01*
X10851Y8089D01*
X10854Y8098D01*
X10857Y8108D01*
X10858Y8118D01*
Y7918D02*
X10857Y7927D01*
X10854Y7937D01*
X10851Y7946D01*
X10846Y7955D01*
X10839Y7963D01*
X10832Y7969D01*
X10824Y7975D01*
X10814Y7979D01*
X10805Y7981D01*
X10795Y7982D01*
X10785Y7982D01*
X10775Y7980D01*
X10766Y7977D01*
X10757Y7972D01*
X10749Y7966D01*
X10742Y7959D01*
X10737Y7951D01*
X10732Y7942D01*
X10729Y7932D01*
X10728Y7922D01*
Y7913D01*
X10729Y7903D01*
X10732Y7893D01*
X10737Y7884D01*
X10742Y7876D01*
X10749Y7869D01*
X10757Y7863D01*
X10766Y7858D01*
X10775Y7855D01*
X10785Y7853D01*
X10795Y7853D01*
X10805Y7854D01*
X10814Y7856D01*
X10824Y7860D01*
X10832Y7866D01*
X10839Y7872D01*
X10846Y7880D01*
X10851Y7889D01*
X10854Y7898D01*
X10857Y7908D01*
X10858Y7918D01*
Y7718D02*
X10857Y7727D01*
X10854Y7737D01*
X10851Y7746D01*
X10846Y7755D01*
X10839Y7763D01*
X10832Y7769D01*
X10824Y7775D01*
X10814Y7779D01*
X10805Y7781D01*
X10795Y7782D01*
X10785Y7782D01*
X10775Y7780D01*
X10766Y7777D01*
X10757Y7772D01*
X10749Y7766D01*
X10742Y7759D01*
X10737Y7751D01*
X10732Y7742D01*
X10729Y7732D01*
X10728Y7722D01*
Y7713D01*
X10729Y7703D01*
X10732Y7693D01*
X10737Y7684D01*
X10742Y7676D01*
X10749Y7669D01*
X10757Y7663D01*
X10766Y7658D01*
X10775Y7655D01*
X10785Y7653D01*
X10795Y7653D01*
X10805Y7654D01*
X10814Y7656D01*
X10824Y7660D01*
X10832Y7666D01*
X10839Y7672D01*
X10846Y7680D01*
X10851Y7689D01*
X10854Y7698D01*
X10857Y7708D01*
X10858Y7718D01*
Y7517D02*
X10857Y7527D01*
X10854Y7537D01*
X10851Y7546D01*
X10846Y7555D01*
X10839Y7563D01*
X10832Y7569D01*
X10824Y7575D01*
X10814Y7579D01*
X10805Y7581D01*
X10795Y7582D01*
X10785Y7582D01*
X10775Y7580D01*
X10766Y7577D01*
X10757Y7572D01*
X10749Y7566D01*
X10742Y7559D01*
X10737Y7551D01*
X10732Y7542D01*
X10729Y7532D01*
X10728Y7522D01*
Y7513D01*
X10729Y7503D01*
X10732Y7493D01*
X10737Y7484D01*
X10742Y7476D01*
X10749Y7469D01*
X10757Y7463D01*
X10766Y7458D01*
X10775Y7455D01*
X10785Y7453D01*
X10795Y7453D01*
X10805Y7454D01*
X10814Y7456D01*
X10824Y7460D01*
X10832Y7466D01*
X10839Y7472D01*
X10846Y7480D01*
X10851Y7489D01*
X10854Y7498D01*
X10857Y7508D01*
X10858Y7517D01*
X9578Y7222D02*
X9577Y7232D01*
X9574Y7242D01*
X9571Y7251D01*
X9566Y7260D01*
X9559Y7268D01*
X9552Y7274D01*
X9544Y7280D01*
X9534Y7284D01*
X9525Y7286D01*
X9515Y7287D01*
X9505Y7287D01*
X9495Y7285D01*
X9486Y7282D01*
X9477Y7277D01*
X9469Y7271D01*
X9462Y7264D01*
X9457Y7256D01*
X9452Y7247D01*
X9449Y7237D01*
X9448Y7227D01*
Y7218D01*
X9449Y7208D01*
X9452Y7198D01*
X9457Y7189D01*
X9462Y7181D01*
X9469Y7174D01*
X9477Y7168D01*
X9486Y7163D01*
X9495Y7160D01*
X9505Y7158D01*
X9515Y7158D01*
X9525Y7159D01*
X9534Y7161D01*
X9544Y7165D01*
X9552Y7171D01*
X9559Y7177D01*
X9566Y7185D01*
X9571Y7194D01*
X9574Y7203D01*
X9577Y7213D01*
X9578Y7222D01*
X9778Y7218D02*
X9777Y7227D01*
X9774Y7237D01*
X9771Y7246D01*
X9766Y7255D01*
X9759Y7263D01*
X9752Y7269D01*
X9744Y7275D01*
X9734Y7279D01*
X9725Y7281D01*
X9715Y7282D01*
X9705Y7282D01*
X9695Y7280D01*
X9686Y7277D01*
X9677Y7272D01*
X9669Y7266D01*
X9662Y7259D01*
X9657Y7251D01*
X9652Y7242D01*
X9649Y7232D01*
X9648Y7222D01*
Y7213D01*
X9649Y7203D01*
X9652Y7193D01*
X9657Y7184D01*
X9662Y7176D01*
X9669Y7169D01*
X9677Y7163D01*
X9686Y7158D01*
X9695Y7155D01*
X9705Y7153D01*
X9715Y7153D01*
X9725Y7154D01*
X9734Y7156D01*
X9744Y7160D01*
X9752Y7166D01*
X9759Y7172D01*
X9766Y7180D01*
X9771Y7189D01*
X9774Y7198D01*
X9777Y7208D01*
X9778Y7218D01*
X9977Y7222D02*
X9977Y7232D01*
X9974Y7242D01*
X9971Y7251D01*
X9966Y7260D01*
X9959Y7268D01*
X9952Y7274D01*
X9944Y7280D01*
X9934Y7284D01*
X9925Y7286D01*
X9915Y7287D01*
X9905Y7287D01*
X9895Y7285D01*
X9886Y7282D01*
X9877Y7277D01*
X9869Y7271D01*
X9862Y7264D01*
X9857Y7256D01*
X9852Y7247D01*
X9849Y7237D01*
X9848Y7227D01*
Y7218D01*
X9849Y7208D01*
X9852Y7198D01*
X9857Y7189D01*
X9862Y7181D01*
X9869Y7174D01*
X9877Y7168D01*
X9886Y7163D01*
X9895Y7160D01*
X9905Y7158D01*
X9915Y7158D01*
X9925Y7159D01*
X9934Y7161D01*
X9944Y7165D01*
X9952Y7171D01*
X9959Y7177D01*
X9966Y7185D01*
X9971Y7194D01*
X9974Y7203D01*
X9977Y7213D01*
X9977Y7222D01*
X10177D02*
X10177Y7232D01*
X10174Y7242D01*
X10171Y7251D01*
X10166Y7260D01*
X10159Y7268D01*
X10152Y7274D01*
X10144Y7280D01*
X10134Y7284D01*
X10125Y7286D01*
X10115Y7287D01*
X10105Y7287D01*
X10095Y7285D01*
X10086Y7282D01*
X10077Y7277D01*
X10069Y7271D01*
X10062Y7264D01*
X10057Y7256D01*
X10052Y7247D01*
X10049Y7237D01*
X10048Y7227D01*
Y7218D01*
X10049Y7208D01*
X10052Y7198D01*
X10057Y7189D01*
X10062Y7181D01*
X10069Y7174D01*
X10077Y7168D01*
X10086Y7163D01*
X10095Y7160D01*
X10105Y7158D01*
X10115Y7158D01*
X10125Y7159D01*
X10134Y7161D01*
X10144Y7165D01*
X10152Y7171D01*
X10159Y7177D01*
X10166Y7185D01*
X10171Y7194D01*
X10174Y7203D01*
X10177Y7213D01*
X10177Y7222D01*
X10377D02*
X10377Y7232D01*
X10374Y7242D01*
X10371Y7251D01*
X10366Y7260D01*
X10359Y7268D01*
X10352Y7274D01*
X10344Y7280D01*
X10334Y7284D01*
X10325Y7286D01*
X10315Y7287D01*
X10305Y7287D01*
X10295Y7285D01*
X10286Y7282D01*
X10277Y7277D01*
X10269Y7271D01*
X10262Y7264D01*
X10257Y7256D01*
X10252Y7247D01*
X10249Y7237D01*
X10248Y7227D01*
Y7218D01*
X10249Y7208D01*
X10252Y7198D01*
X10257Y7189D01*
X10262Y7181D01*
X10269Y7174D01*
X10277Y7168D01*
X10286Y7163D01*
X10295Y7160D01*
X10305Y7158D01*
X10315Y7158D01*
X10325Y7159D01*
X10334Y7161D01*
X10344Y7165D01*
X10352Y7171D01*
X10359Y7177D01*
X10366Y7185D01*
X10371Y7194D01*
X10374Y7203D01*
X10377Y7213D01*
X10377Y7222D01*
X10578D02*
X10577Y7232D01*
X10574Y7242D01*
X10571Y7251D01*
X10566Y7260D01*
X10559Y7268D01*
X10552Y7274D01*
X10544Y7280D01*
X10534Y7284D01*
X10525Y7286D01*
X10515Y7287D01*
X10505Y7287D01*
X10495Y7285D01*
X10486Y7282D01*
X10477Y7277D01*
X10469Y7271D01*
X10462Y7264D01*
X10457Y7256D01*
X10452Y7247D01*
X10449Y7237D01*
X10448Y7227D01*
Y7218D01*
X10449Y7208D01*
X10452Y7198D01*
X10457Y7189D01*
X10462Y7181D01*
X10469Y7174D01*
X10477Y7168D01*
X10486Y7163D01*
X10495Y7160D01*
X10505Y7158D01*
X10515Y7158D01*
X10525Y7159D01*
X10534Y7161D01*
X10544Y7165D01*
X10552Y7171D01*
X10559Y7177D01*
X10566Y7185D01*
X10571Y7194D01*
X10574Y7203D01*
X10577Y7213D01*
X10578Y7222D01*
X10167Y8453D02*
Y8953D01*
X9042D02*
X10167D01*
X9042Y8453D02*
Y8953D01*
Y8453D02*
X10167D01*
X10203Y8688D02*
Y8887D01*
X10507Y8002D02*
X10517D01*
D18*
X10203Y8627D02*
Y8943D01*
Y8627D02*
X10602D01*
X10203Y8943D02*
X10602D01*
Y8627D02*
Y8943D01*
D19*
X9757Y8408D02*
X9759Y8398D01*
X9765Y8390D01*
X9773Y8384D01*
X9783Y8382D01*
X9792Y8384D01*
X9800Y8390D01*
X9806Y8398D01*
X9807Y8408D01*
X10852Y7247D02*
X10946D01*
X10852D02*
Y7391D01*
X10946D01*
Y7247D02*
Y7391D01*
X10698Y7372D02*
X10757D01*
X10698Y7352D02*
Y7372D01*
Y7273D02*
Y7293D01*
Y7273D02*
X10757D01*
X9943Y7403D02*
Y7496D01*
X9800Y7403D02*
X9943D01*
X9800D02*
Y7496D01*
X9943D01*
X9988Y7962D02*
X10080D01*
X9988D02*
Y8106D01*
X10080D01*
Y7962D02*
Y8106D01*
X9988Y8101D02*
X10080D01*
X9988D02*
Y8245D01*
X10080D01*
Y8101D02*
Y8245D01*
X10007Y7765D02*
Y7858D01*
X10151D01*
Y7765D02*
Y7858D01*
X10007Y7765D02*
X10151D01*
X10257Y7878D02*
X10318D01*
X10257Y7858D02*
Y7878D01*
Y7778D02*
Y7798D01*
Y7778D02*
X10318D01*
X10007Y7569D02*
Y7662D01*
X10151D01*
Y7569D02*
Y7662D01*
X10007Y7569D02*
X10151D01*
X10443Y7628D02*
Y7688D01*
Y7628D02*
X10462D01*
X10523D02*
X10542D01*
Y7688D01*
X10597Y7472D02*
Y7532D01*
X10578D02*
X10597D01*
X10498D02*
X10517D01*
X10498Y7472D02*
Y7532D01*
X10387Y7417D02*
X10481D01*
X10387D02*
Y7561D01*
X10481D01*
Y7417D02*
Y7561D01*
X10267Y7432D02*
Y7492D01*
Y7432D02*
X10288D01*
X10347D02*
X10368D01*
Y7492D01*
X10153Y7417D02*
X10245D01*
X10153D02*
Y7561D01*
X10245D01*
Y7417D02*
Y7561D01*
X10007Y7665D02*
Y7758D01*
X10151D01*
Y7665D02*
Y7758D01*
X10007Y7665D02*
X10151D01*
X10023Y7432D02*
Y7492D01*
Y7432D02*
X10042D01*
X10102D02*
X10123D01*
Y7492D01*
X9477Y8182D02*
X9538D01*
Y8203D01*
Y8262D02*
Y8283D01*
X9477D02*
X9538D01*
X9443Y8417D02*
X9502D01*
X9443Y8398D02*
Y8417D01*
Y8318D02*
Y8337D01*
Y8318D02*
X9502D01*
X9427Y7794D02*
Y7887D01*
X9571D01*
Y7794D02*
Y7887D01*
X9427Y7794D02*
X9571D01*
X9682Y8408D02*
X9757D01*
X9807D02*
X9882D01*
Y7508D02*
Y8408D01*
X9682Y7508D02*
X9882D01*
X9682D02*
Y8408D01*
X9427Y7405D02*
X9571D01*
Y7497D01*
X9427D02*
X9571D01*
X9427Y7405D02*
Y7497D01*
Y7504D02*
X9571D01*
Y7597D01*
X9427D02*
X9571D01*
X9427Y7504D02*
Y7597D01*
Y7604D02*
X9571D01*
Y7698D01*
X9427D02*
X9571D01*
X9427Y7604D02*
Y7698D01*
Y7700D02*
X9571D01*
Y7793D01*
X9427D02*
X9571D01*
X9427Y7700D02*
Y7793D01*
X9576Y7405D02*
X9720D01*
Y7497D01*
X9576D02*
X9720D01*
X9576Y7405D02*
Y7497D01*
X9427Y7890D02*
X9571D01*
Y7983D01*
X9427D02*
X9571D01*
X9427Y7890D02*
Y7983D01*
Y7984D02*
X9571D01*
Y8078D01*
X9427D02*
X9571D01*
X9427Y7984D02*
Y8078D01*
X10193Y8422D02*
X10252D01*
Y8403D02*
Y8422D01*
Y8323D02*
Y8342D01*
X10193Y8323D02*
X10252D01*
X10080Y8252D02*
Y8396D01*
X9988D02*
X10080D01*
X9988Y8252D02*
Y8396D01*
Y8252D02*
X10080D01*
X10257Y7999D02*
X10401D01*
Y8092D01*
X10257D02*
X10401D01*
X10257Y7999D02*
Y8092D01*
Y7894D02*
X10401D01*
Y7988D01*
X10257D02*
X10401D01*
X10257Y7894D02*
Y7988D01*
D35*
X10517Y8002D02*
X10578D01*
Y7832D02*
Y8002D01*
X10512Y7832D02*
X10578D01*
X10458Y7887D02*
X10512Y7832D01*
X10458Y7887D02*
Y7952D01*
X10507Y8002D01*
D36*
X10108Y7892D02*
Y8292D01*
X10227D01*
Y7892D02*
Y8292D01*
X10108Y7892D02*
X10227D01*
X10512Y8222D02*
X10592D01*
X10512D02*
Y8462D01*
X10592D01*
Y8222D02*
Y8462D01*
X10552Y8142D02*
Y8222D01*
Y8462D02*
Y8542D01*
X10408Y8222D02*
X10488D01*
X10408D02*
Y8462D01*
X10488D01*
Y8222D02*
Y8462D01*
X10448Y8142D02*
Y8222D01*
Y8462D02*
Y8542D01*
X10307Y8222D02*
X10387D01*
X10307D02*
Y8462D01*
X10387D01*
Y8222D02*
Y8462D01*
X10347Y8142D02*
Y8222D01*
Y8462D02*
Y8542D01*
D37*
X10733Y7207D02*
X10759D01*
X10746Y7221D02*
Y7194D01*
X9738Y8262D02*
X9751D01*
X9744D01*
Y8222D01*
X9738D01*
X9751D01*
X9797Y8256D02*
X9791Y8262D01*
X9777D01*
X9771Y8256D01*
Y8249D01*
X9777Y8242D01*
X9791D01*
X9797Y8236D01*
Y8229D01*
X9791Y8222D01*
X9777D01*
X9771Y8229D01*
X9811Y8222D02*
Y8262D01*
X9831D01*
X9837Y8256D01*
Y8242D01*
X9831Y8236D01*
X9811D01*
X10628Y8697D02*
Y8684D01*
X10634Y8677D01*
X10661D01*
X10667Y8684D01*
Y8697D01*
X10661Y8704D01*
X10634D01*
X10628Y8697D01*
Y8717D02*
X10661D01*
X10667Y8724D01*
Y8737D01*
X10661Y8744D01*
X10628D01*
Y8757D02*
Y8784D01*
Y8771D01*
X10667D01*
Y8797D02*
X10628D01*
Y8817D01*
X10634Y8824D01*
X10648D01*
X10654Y8817D01*
Y8797D01*
X10628Y8837D02*
X10661D01*
X10667Y8844D01*
Y8857D01*
X10661Y8864D01*
X10628D01*
Y8877D02*
Y8904D01*
Y8891D01*
X10667D01*
X10188Y8507D02*
Y8547D01*
X10207D01*
X10214Y8541D01*
Y8527D01*
X10207Y8521D01*
X10188D01*
X10201D02*
X10214Y8507D01*
X10254Y8547D02*
X10227D01*
Y8507D01*
X10254D01*
X10227Y8527D02*
X10241D01*
X10267Y8507D02*
X10281D01*
X10274D01*
Y8547D01*
X10267Y8541D01*
X10594Y7589D02*
X10588Y7582D01*
Y7569D01*
X10594Y7562D01*
X10601D01*
X10608Y7569D01*
Y7582D01*
X10614Y7589D01*
X10621D01*
X10627Y7582D01*
Y7569D01*
X10621Y7562D01*
X10588Y7602D02*
Y7616D01*
Y7609D01*
X10627D01*
Y7602D01*
Y7616D01*
X10588Y7656D02*
Y7642D01*
X10594Y7636D01*
X10621D01*
X10627Y7642D01*
Y7656D01*
X10621Y7662D01*
X10594D01*
X10588Y7656D01*
X10608Y7676D02*
Y7702D01*
X10627Y7736D02*
X10588D01*
X10608Y7716D01*
Y7742D01*
Y7756D02*
Y7782D01*
X10594Y7796D02*
X10588Y7802D01*
Y7816D01*
X10594Y7822D01*
X10621D01*
X10627Y7816D01*
Y7802D01*
X10621Y7796D01*
X10594D01*
X10627Y7836D02*
Y7849D01*
Y7842D01*
X10588D01*
X10594Y7836D01*
X10653Y7133D02*
X10693D01*
Y7159D01*
X10653Y7199D02*
Y7172D01*
X10693D01*
Y7199D01*
X10673Y7172D02*
Y7186D01*
X10653Y7212D02*
X10693D01*
Y7232D01*
X10686Y7239D01*
X10659D01*
X10653Y7232D01*
Y7212D01*
X10328Y7712D02*
X10354D01*
X10341Y7726D02*
Y7699D01*
X10294Y7631D02*
X10287Y7637D01*
X10274D01*
X10267Y7631D01*
Y7604D01*
X10274Y7597D01*
X10287D01*
X10294Y7604D01*
X10307Y7597D02*
X10321D01*
X10314D01*
Y7637D01*
X10307Y7631D01*
X10341D02*
X10347Y7637D01*
X10361D01*
X10367Y7631D01*
Y7604D01*
X10361Y7597D01*
X10347D01*
X10341Y7604D01*
Y7631D01*
X9852Y7827D02*
X9813D01*
Y7847D01*
X9819Y7854D01*
X9833D01*
X9839Y7847D01*
Y7827D01*
X9813Y7867D02*
X9852D01*
Y7887D01*
X9846Y7894D01*
X9819D01*
X9813Y7887D01*
Y7867D01*
X9852Y7733D02*
X9813D01*
Y7752D01*
X9819Y7759D01*
X9833D01*
X9839Y7752D01*
Y7733D01*
X9819Y7799D02*
X9813Y7792D01*
Y7779D01*
X9819Y7772D01*
X9846D01*
X9852Y7779D01*
Y7792D01*
X9846Y7799D01*
X9819Y7969D02*
X9813Y7962D01*
Y7949D01*
X9819Y7943D01*
X9846D01*
X9852Y7949D01*
Y7962D01*
X9846Y7969D01*
X9833D01*
Y7956D01*
X9813Y8023D02*
X9839D01*
X9852Y8036D01*
X9839Y8049D01*
X9813D01*
Y8062D02*
X9852D01*
Y8082D01*
X9846Y8089D01*
X9819D01*
X9813Y8082D01*
Y8062D01*
Y8123D02*
X9839D01*
X9852Y8136D01*
X9839Y8149D01*
X9813D01*
X9852Y8162D02*
X9813D01*
Y8182D01*
X9819Y8189D01*
X9833D01*
X9839Y8182D01*
Y8162D01*
X10903Y8488D02*
X10943D01*
Y8507D01*
X10936Y8514D01*
X10929D01*
X10923Y8507D01*
Y8488D01*
Y8507D01*
X10916Y8514D01*
X10909D01*
X10903Y8507D01*
Y8488D01*
X10923Y8527D02*
Y8554D01*
X10909Y8541D02*
X10936D01*
X10943Y8278D02*
X10903D01*
Y8297D01*
X10909Y8304D01*
X10923D01*
X10929Y8297D01*
Y8278D01*
X10923Y8317D02*
Y8344D01*
X10909Y8331D02*
X10936D01*
X10507Y7082D02*
X10494D01*
X10488Y7076D01*
Y7049D01*
X10494Y7043D01*
X10507D01*
X10514Y7049D01*
Y7076D01*
X10507Y7082D01*
X10554Y7043D02*
X10527D01*
X10554Y7069D01*
Y7076D01*
X10547Y7082D01*
X10534D01*
X10527Y7076D01*
X10903Y8097D02*
Y8084D01*
X10909Y8078D01*
X10936D01*
X10943Y8084D01*
Y8097D01*
X10936Y8104D01*
X10909D01*
X10903Y8097D01*
X10909Y8117D02*
X10903Y8124D01*
Y8137D01*
X10909Y8144D01*
X10916D01*
X10923Y8137D01*
Y8131D01*
Y8137D01*
X10929Y8144D01*
X10936D01*
X10943Y8137D01*
Y8124D01*
X10936Y8117D01*
X10923Y7863D02*
Y7889D01*
X10909Y7876D02*
X10936D01*
X10943Y7902D02*
Y7916D01*
Y7909D01*
X10903D01*
X10909Y7902D01*
X10943Y7962D02*
Y7936D01*
X10916Y7962D01*
X10909D01*
X10903Y7956D01*
Y7942D01*
X10909Y7936D01*
X10923Y7677D02*
Y7704D01*
X10909Y7691D02*
X10936D01*
X10903Y7744D02*
Y7717D01*
X10923D01*
X10916Y7731D01*
Y7737D01*
X10923Y7744D01*
X10936D01*
X10943Y7737D01*
Y7724D01*
X10936Y7717D01*
X10909Y7499D02*
X10903Y7492D01*
Y7479D01*
X10909Y7472D01*
X10936D01*
X10943Y7479D01*
Y7492D01*
X10936Y7499D01*
X10923D01*
Y7486D01*
X10943Y7512D02*
X10903D01*
X10943Y7539D01*
X10903D01*
Y7552D02*
X10943D01*
Y7572D01*
X10936Y7579D01*
X10909D01*
X10903Y7572D01*
Y7552D01*
X10267Y7062D02*
X10294D01*
X10281Y7076D02*
Y7049D01*
X10307Y7043D02*
X10321D01*
X10314D01*
Y7082D01*
X10307Y7076D01*
X10367Y7043D02*
X10341D01*
X10367Y7069D01*
Y7076D01*
X10361Y7082D01*
X10347D01*
X10341Y7076D01*
X9097Y8358D02*
X9057D01*
Y8338D01*
X9064Y8331D01*
X9091D01*
X9097Y8338D01*
Y8358D01*
X9057Y8318D02*
Y8304D01*
Y8311D01*
X9097D01*
X9091Y8318D01*
Y8151D02*
X9097Y8158D01*
Y8171D01*
X9091Y8177D01*
X9064D01*
X9057Y8171D01*
Y8158D01*
X9064Y8151D01*
X9077D01*
Y8164D01*
X9057Y8138D02*
X9097D01*
X9057Y8111D01*
X9097D01*
Y8098D02*
X9057D01*
Y8078D01*
X9064Y8071D01*
X9091D01*
X9097Y8078D01*
Y8098D01*
X9689Y7076D02*
X9682Y7082D01*
X9669D01*
X9663Y7076D01*
Y7049D01*
X9669Y7043D01*
X9682D01*
X9689Y7049D01*
Y7062D01*
X9676D01*
X9702Y7043D02*
Y7082D01*
X9729Y7043D01*
Y7082D01*
X9742D02*
Y7043D01*
X9762D01*
X9769Y7049D01*
Y7076D01*
X9762Y7082D01*
X9742D01*
X9493D02*
X9506D01*
X9499D01*
Y7043D01*
X9493D01*
X9506D01*
X9526D02*
X9539D01*
X9532D01*
Y7082D01*
X9526Y7076D01*
X9097Y7548D02*
Y7534D01*
Y7541D01*
X9057D01*
Y7548D01*
Y7534D01*
Y7488D02*
Y7514D01*
X9084Y7488D01*
X9091D01*
X9097Y7494D01*
Y7508D01*
X9091Y7514D01*
X9097Y7753D02*
Y7739D01*
Y7746D01*
X9057D01*
Y7753D01*
Y7739D01*
X9091Y7719D02*
X9097Y7713D01*
Y7699D01*
X9091Y7693D01*
X9084D01*
X9077Y7699D01*
Y7706D01*
Y7699D01*
X9071Y7693D01*
X9064D01*
X9057Y7699D01*
Y7713D01*
X9064Y7719D01*
X9097Y7948D02*
Y7934D01*
Y7941D01*
X9057D01*
Y7948D01*
Y7934D01*
Y7894D02*
X9097D01*
X9077Y7914D01*
Y7888D01*
X10073Y7043D02*
Y7082D01*
X10092D01*
X10099Y7076D01*
Y7062D01*
X10092Y7056D01*
X10073D01*
X10086D02*
X10099Y7043D01*
X10112Y7082D02*
X10139Y7043D01*
Y7082D02*
X10112Y7043D01*
X9868Y7082D02*
X9894D01*
X9881D01*
Y7043D01*
X9907Y7082D02*
X9934Y7043D01*
Y7082D02*
X9907Y7043D01*
X10729Y7071D02*
X10722Y7077D01*
X10709D01*
X10703Y7071D01*
Y7064D01*
X10709Y7057D01*
X10722D01*
X10729Y7051D01*
Y7044D01*
X10722Y7037D01*
X10709D01*
X10703Y7044D01*
X10742Y7077D02*
X10769D01*
X10756D01*
Y7037D01*
X10782D02*
Y7064D01*
X10796Y7077D01*
X10809Y7064D01*
Y7037D01*
Y7057D01*
X10782D01*
X10822Y7077D02*
X10849D01*
X10836D01*
Y7037D01*
X10862Y7077D02*
Y7044D01*
X10869Y7037D01*
X10882D01*
X10889Y7044D01*
Y7077D01*
X10929Y7071D02*
X10922Y7077D01*
X10909D01*
X10902Y7071D01*
Y7064D01*
X10909Y7057D01*
X10922D01*
X10929Y7051D01*
Y7044D01*
X10922Y7037D01*
X10909D01*
X10902Y7044D01*
X10493Y8062D02*
X10506D01*
X10499D01*
Y8023D01*
X10493D01*
X10506D01*
X10552Y8056D02*
X10546Y8062D01*
X10532D01*
X10526Y8056D01*
Y8029D01*
X10532Y8023D01*
X10546D01*
X10552Y8029D01*
X10592Y8023D02*
X10566D01*
X10592Y8049D01*
Y8056D01*
X10586Y8062D01*
X10572D01*
X10566Y8056D01*
X10932Y7133D02*
X10893D01*
Y7152D01*
X10899Y7159D01*
X10913D01*
X10919Y7152D01*
Y7133D01*
Y7146D02*
X10932Y7159D01*
Y7172D02*
Y7186D01*
Y7179D01*
X10893D01*
X10899Y7172D01*
Y7206D02*
X10893Y7212D01*
Y7226D01*
X10899Y7232D01*
X10926D01*
X10932Y7226D01*
Y7212D01*
X10926Y7206D01*
X10899D01*
X10627Y7402D02*
X10654D01*
X10641D01*
Y7363D01*
X10694D02*
X10667D01*
X10694Y7389D01*
Y7396D01*
X10687Y7402D01*
X10674D01*
X10667Y7396D01*
X9818Y7353D02*
Y7393D01*
X9837D01*
X9844Y7387D01*
Y7373D01*
X9837Y7367D01*
X9818D01*
X9831D02*
X9844Y7353D01*
X9857Y7360D02*
X9864Y7353D01*
X9877D01*
X9884Y7360D01*
Y7387D01*
X9877Y7393D01*
X9864D01*
X9857Y7387D01*
Y7380D01*
X9864Y7373D01*
X9884D01*
X10030Y7946D02*
X10023Y7952D01*
X10010D01*
X10003Y7946D01*
Y7919D01*
X10010Y7912D01*
X10023D01*
X10030Y7919D01*
X10070Y7952D02*
X10057Y7946D01*
X10043Y7932D01*
Y7919D01*
X10050Y7912D01*
X10063D01*
X10070Y7919D01*
Y7926D01*
X10063Y7932D01*
X10043D01*
X10245Y8174D02*
X10239Y8167D01*
Y8154D01*
X10245Y8148D01*
X10272D01*
X10278Y8154D01*
Y8167D01*
X10272Y8174D01*
X10239Y8214D02*
Y8187D01*
X10259D01*
X10252Y8201D01*
Y8207D01*
X10259Y8214D01*
X10272D01*
X10278Y8207D01*
Y8194D01*
X10272Y8187D01*
X10169Y7808D02*
X10163Y7801D01*
Y7788D01*
X10169Y7781D01*
X10196D01*
X10203Y7788D01*
Y7801D01*
X10196Y7808D01*
X10163Y7821D02*
Y7848D01*
X10169D01*
X10196Y7821D01*
X10203D01*
X10392Y7852D02*
Y7812D01*
X10412D01*
X10419Y7819D01*
Y7846D01*
X10412Y7852D01*
X10392D01*
X10459Y7812D02*
X10432D01*
X10459Y7839D01*
Y7846D01*
X10452Y7852D01*
X10439D01*
X10432Y7846D01*
X9998Y7571D02*
X9958D01*
Y7591D01*
X9964Y7598D01*
X9978D01*
X9984Y7591D01*
Y7571D01*
Y7585D02*
X9998Y7598D01*
Y7611D02*
Y7625D01*
Y7618D01*
X9958D01*
X9964Y7611D01*
X9958Y7671D02*
X9964Y7658D01*
X9978Y7645D01*
X9991D01*
X9998Y7651D01*
Y7665D01*
X9991Y7671D01*
X9984D01*
X9978Y7665D01*
Y7645D01*
X10462Y7802D02*
X10489D01*
X10476D01*
Y7762D01*
X10529Y7802D02*
X10502D01*
Y7782D01*
X10516Y7789D01*
X10522D01*
X10529Y7782D01*
Y7769D01*
X10522Y7762D01*
X10509D01*
X10502Y7769D01*
X10608Y7468D02*
X10648D01*
Y7487D01*
X10641Y7494D01*
X10614D01*
X10608Y7487D01*
Y7468D01*
Y7534D02*
X10614Y7521D01*
X10628Y7507D01*
X10641D01*
X10648Y7514D01*
Y7527D01*
X10641Y7534D01*
X10634D01*
X10628Y7527D01*
Y7507D01*
X10389Y7367D02*
Y7407D01*
X10408D01*
X10415Y7401D01*
Y7387D01*
X10408Y7381D01*
X10389D01*
X10402D02*
X10415Y7367D01*
X10428D02*
X10442D01*
X10435D01*
Y7407D01*
X10428Y7401D01*
X10488Y7407D02*
X10462D01*
Y7387D01*
X10475Y7394D01*
X10482D01*
X10488Y7387D01*
Y7374D01*
X10482Y7367D01*
X10468D01*
X10462Y7374D01*
X10288Y7507D02*
Y7468D01*
X10307D01*
X10314Y7474D01*
Y7501D01*
X10307Y7507D01*
X10288D01*
X10327D02*
X10354D01*
Y7501D01*
X10327Y7474D01*
Y7468D01*
X10158Y7367D02*
Y7407D01*
X10178D01*
X10185Y7401D01*
Y7387D01*
X10178Y7381D01*
X10158D01*
X10172D02*
X10185Y7367D01*
X10198D02*
X10212D01*
X10205D01*
Y7407D01*
X10198Y7401D01*
X10232D02*
X10238Y7407D01*
X10252D01*
X10258Y7401D01*
Y7394D01*
X10252Y7387D01*
X10258Y7381D01*
Y7374D01*
X10252Y7367D01*
X10238D01*
X10232Y7374D01*
Y7381D01*
X10238Y7387D01*
X10232Y7394D01*
Y7401D01*
X10238Y7387D02*
X10252D01*
X10203Y7667D02*
X10163D01*
Y7686D01*
X10169Y7693D01*
X10183D01*
X10189Y7686D01*
Y7667D01*
Y7680D02*
X10203Y7693D01*
Y7706D02*
Y7720D01*
Y7713D01*
X10163D01*
X10169Y7706D01*
X10163Y7740D02*
Y7766D01*
X10169D01*
X10196Y7740D01*
X10203D01*
X10042Y7402D02*
X10069D01*
X10056D01*
Y7363D01*
X10102D02*
Y7402D01*
X10082Y7382D01*
X10109D01*
X9472Y8172D02*
X9499D01*
X9486D01*
Y8132D01*
X9512D02*
X9526D01*
X9519D01*
Y8172D01*
X9512Y8166D01*
X9578Y8442D02*
Y8403D01*
X9597D01*
X9604Y8409D01*
Y8436D01*
X9597Y8442D01*
X9578D01*
X9617Y8403D02*
X9631D01*
X9624D01*
Y8442D01*
X9617Y8436D01*
X9352Y7837D02*
Y7876D01*
X9372D01*
X9379Y7870D01*
Y7856D01*
X9372Y7850D01*
X9352D01*
X9366D02*
X9379Y7837D01*
X9412D02*
Y7876D01*
X9392Y7856D01*
X9419D01*
X9747Y7666D02*
X9760D01*
X9753D01*
Y7627D01*
X9747D01*
X9760D01*
X9806Y7660D02*
X9800Y7666D01*
X9786D01*
X9780Y7660D01*
Y7633D01*
X9786Y7627D01*
X9800D01*
X9806Y7633D01*
X9820Y7627D02*
X9833D01*
X9826D01*
Y7666D01*
X9820Y7660D01*
X9519Y7390D02*
X9512Y7396D01*
X9499D01*
X9493Y7390D01*
Y7363D01*
X9499Y7357D01*
X9512D01*
X9519Y7363D01*
X9552Y7357D02*
Y7396D01*
X9532Y7376D01*
X9559D01*
X9352Y7571D02*
Y7611D01*
X9372D01*
X9379Y7605D01*
Y7591D01*
X9372Y7585D01*
X9352D01*
X9366D02*
X9379Y7571D01*
X9419Y7611D02*
X9406Y7605D01*
X9392Y7591D01*
Y7578D01*
X9399Y7571D01*
X9412D01*
X9419Y7578D01*
Y7585D01*
X9412Y7591D01*
X9392D01*
X9379Y7670D02*
X9372Y7676D01*
X9359D01*
X9352Y7670D01*
Y7643D01*
X9359Y7636D01*
X9372D01*
X9379Y7643D01*
X9392Y7670D02*
X9399Y7676D01*
X9412D01*
X9419Y7670D01*
Y7663D01*
X9412Y7656D01*
X9406D01*
X9412D01*
X9419Y7650D01*
Y7643D01*
X9412Y7636D01*
X9399D01*
X9392Y7643D01*
X9379Y7725D02*
X9372Y7731D01*
X9359D01*
X9352Y7725D01*
Y7698D01*
X9359Y7692D01*
X9372D01*
X9379Y7698D01*
X9419Y7692D02*
X9392D01*
X9419Y7718D01*
Y7725D01*
X9412Y7731D01*
X9399D01*
X9392Y7725D01*
X9613Y7357D02*
Y7396D01*
X9632D01*
X9639Y7390D01*
Y7376D01*
X9632Y7370D01*
X9613D01*
X9626D02*
X9639Y7357D01*
X9652Y7390D02*
X9659Y7396D01*
X9672D01*
X9679Y7390D01*
Y7383D01*
X9672Y7376D01*
X9679Y7370D01*
Y7363D01*
X9672Y7357D01*
X9659D01*
X9652Y7363D01*
Y7370D01*
X9659Y7376D01*
X9652Y7383D01*
Y7390D01*
X9659Y7376D02*
X9672D01*
X9379Y7920D02*
X9372Y7926D01*
X9359D01*
X9352Y7920D01*
Y7893D01*
X9359Y7886D01*
X9372D01*
X9379Y7893D01*
X9392Y7886D02*
X9406D01*
X9399D01*
Y7926D01*
X9392Y7920D01*
X9352Y8012D02*
Y8051D01*
X9372D01*
X9379Y8045D01*
Y8031D01*
X9372Y8025D01*
X9352D01*
X9366D02*
X9379Y8012D01*
X9419D02*
X9392D01*
X9419Y8038D01*
Y8045D01*
X9412Y8051D01*
X9399D01*
X9392Y8045D01*
X10152Y8071D02*
X10191Y8098D01*
X10152D02*
X10191Y8071D01*
Y8111D02*
Y8125D01*
Y8118D01*
X10152D01*
X10158Y8111D01*
X10527Y8316D02*
X10566D01*
Y8336D01*
X10560Y8343D01*
X10533D01*
X10527Y8336D01*
Y8316D01*
X10566Y8376D02*
X10527D01*
X10547Y8356D01*
Y8383D01*
X10427Y8316D02*
X10467D01*
Y8336D01*
X10460Y8343D01*
X10433D01*
X10427Y8336D01*
Y8316D01*
Y8383D02*
Y8356D01*
X10447D01*
X10440Y8370D01*
Y8376D01*
X10447Y8383D01*
X10460D01*
X10467Y8376D01*
Y8363D01*
X10460Y8356D01*
X10327Y8316D02*
X10366D01*
Y8336D01*
X10360Y8343D01*
X10333D01*
X10327Y8336D01*
Y8316D01*
X10333Y8356D02*
X10327Y8363D01*
Y8376D01*
X10333Y8383D01*
X10340D01*
X10347Y8376D01*
Y8370D01*
Y8376D01*
X10353Y8383D01*
X10360D01*
X10366Y8376D01*
Y8363D01*
X10360Y8356D01*
X10193Y8477D02*
X10219D01*
X10206D01*
Y8438D01*
X10232Y8471D02*
X10239Y8477D01*
X10252D01*
X10259Y8471D01*
Y8464D01*
X10252Y8457D01*
X10246D01*
X10252D01*
X10259Y8451D01*
Y8444D01*
X10252Y8438D01*
X10239D01*
X10232Y8444D01*
X9993Y8408D02*
Y8447D01*
X10013D01*
X10020Y8441D01*
Y8427D01*
X10013Y8421D01*
X9993D01*
X10007D02*
X10020Y8408D01*
X10033D02*
X10047D01*
X10040D01*
Y8447D01*
X10033Y8441D01*
X10067D02*
X10073Y8447D01*
X10087D01*
X10093Y8441D01*
Y8434D01*
X10087Y8427D01*
X10080D01*
X10087D01*
X10093Y8421D01*
Y8414D01*
X10087Y8408D01*
X10073D01*
X10067Y8414D01*
X10414Y8043D02*
X10408Y8036D01*
Y8023D01*
X10414Y8017D01*
X10441D01*
X10448Y8023D01*
Y8036D01*
X10441Y8043D01*
Y8056D02*
X10448Y8063D01*
Y8076D01*
X10441Y8083D01*
X10414D01*
X10408Y8076D01*
Y8063D01*
X10414Y8056D01*
X10421D01*
X10428Y8063D01*
Y8083D01*
X10414Y7933D02*
X10408Y7926D01*
Y7913D01*
X10414Y7906D01*
X10441D01*
X10448Y7913D01*
Y7926D01*
X10441Y7933D01*
X10414Y7946D02*
X10408Y7953D01*
Y7966D01*
X10414Y7973D01*
X10421D01*
X10428Y7966D01*
X10434Y7973D01*
X10441D01*
X10448Y7966D01*
Y7953D01*
X10441Y7946D01*
X10434D01*
X10428Y7953D01*
X10421Y7946D01*
X10414D01*
X10428Y7953D02*
Y7966D01*
M02*
