%FSLAX23Y23*%
%MOIN*%
G70*
G01*
G75*
%ADD10R,0.063X0.040*%
%ADD11R,0.050X0.040*%
%ADD12R,0.040X0.063*%
%ADD13R,0.040X0.050*%
%ADD14C,0.015*%
%ADD15C,0.025*%
%ADD16C,0.030*%
%ADD17C,0.010*%
%ADD18C,0.020*%
%ADD19C,0.008*%
%ADD20C,0.050*%
%ADD21C,0.062*%
%ADD22C,0.065*%
%ADD23C,0.180*%
%ADD24C,0.125*%
%ADD25C,0.075*%
%ADD26C,0.100*%
%ADD27C,0.069*%
%ADD28C,0.070*%
%ADD29R,0.062X0.062*%
D10*
X10899Y7354D02*
D03*
Y7281D02*
D03*
X10035Y8069D02*
D03*
Y7997D02*
D03*
Y8210D02*
D03*
Y8137D02*
D03*
X10434Y7524D02*
D03*
Y7451D02*
D03*
X10200Y7524D02*
D03*
Y7451D02*
D03*
X10035Y8286D02*
D03*
Y8359D02*
D03*
D11*
X10698Y7323D02*
D03*
X10797Y7282D02*
D03*
Y7363D02*
D03*
X10257Y7827D02*
D03*
X10358Y7787D02*
D03*
Y7867D02*
D03*
X9538Y8233D02*
D03*
X9438Y8273D02*
D03*
Y8193D02*
D03*
X9443Y8368D02*
D03*
X9542Y8328D02*
D03*
Y8408D02*
D03*
X10153Y8333D02*
D03*
Y8413D02*
D03*
X10252Y8373D02*
D03*
D12*
X9835Y7450D02*
D03*
X9908D02*
D03*
X10115Y7811D02*
D03*
X10042D02*
D03*
X10115Y7615D02*
D03*
X10042D02*
D03*
X10115Y7710D02*
D03*
X10042D02*
D03*
X9535Y7840D02*
D03*
X9462D02*
D03*
Y7451D02*
D03*
X9535D02*
D03*
X9462Y7550D02*
D03*
X9535D02*
D03*
X9462Y7650D02*
D03*
X9535D02*
D03*
X9462Y7746D02*
D03*
X9535D02*
D03*
X9611Y7451D02*
D03*
X9684D02*
D03*
X9462Y7936D02*
D03*
X9535D02*
D03*
X9462Y8031D02*
D03*
X9535D02*
D03*
X10292Y8045D02*
D03*
X10365D02*
D03*
X10292Y7940D02*
D03*
X10365D02*
D03*
D13*
X10493Y7628D02*
D03*
X10533Y7727D02*
D03*
X10453D02*
D03*
X10547Y7532D02*
D03*
X10507Y7432D02*
D03*
X10587D02*
D03*
X10318D02*
D03*
X10358Y7532D02*
D03*
X10278D02*
D03*
X10073Y7432D02*
D03*
X10113Y7532D02*
D03*
X10033D02*
D03*
D14*
X10703Y7102D02*
X10752Y7153D01*
X10842Y7193D02*
X10898Y7247D01*
X10717Y7258D02*
X10738Y7278D01*
X10898Y7247D02*
Y7282D01*
X10797Y7363D02*
Y7503D01*
X9203Y8847D02*
X9278D01*
X9142D02*
X9203D01*
X10363Y7432D02*
X10387Y7457D01*
X10533Y7698D02*
X10547Y7682D01*
X10432Y7602D02*
X10458Y7628D01*
X10453Y7767D02*
X10477Y7793D01*
X10533Y7698D02*
Y7722D01*
X10547Y7548D02*
Y7682D01*
X10453Y7727D02*
Y7767D01*
X10292Y8137D02*
Y8227D01*
X10552Y7972D02*
Y8047D01*
Y8142D01*
X10358Y7798D02*
Y7863D01*
X10363Y7858D02*
Y7932D01*
X10292Y7957D02*
Y8137D01*
X10358Y7662D02*
Y7727D01*
X10068Y8413D02*
X10142D01*
X10148Y8333D02*
X10188D01*
X9203Y8552D02*
X9297D01*
X10012Y7153D02*
X10062Y7102D01*
X10123Y7537D02*
X10158Y7573D01*
X10177D02*
X10203Y7597D01*
X10153Y7698D02*
X10203Y7648D01*
X10257Y7613D02*
X10278Y7593D01*
X10017Y7483D02*
X10033Y7497D01*
Y8377D02*
X10068Y8413D01*
X10127Y7432D02*
X10153Y7457D01*
X10158Y7927D02*
X10257Y7827D01*
X10167Y7787D02*
X10227Y7727D01*
X10203Y7597D02*
Y7613D01*
Y7633D02*
Y7648D01*
Y7608D02*
Y7633D01*
X10278Y7537D02*
Y7593D01*
X10257Y7613D02*
Y7662D01*
X10033Y7497D02*
Y7517D01*
Y8363D02*
Y8377D01*
Y8073D02*
Y8132D01*
Y7537D02*
Y7597D01*
X10042Y7827D02*
Y7927D01*
X9988Y7997D02*
X10023D01*
X9988Y8208D02*
X10017D01*
X9967Y8288D02*
X9983D01*
X10038D01*
X9632Y8057D02*
X9663D01*
X9818D02*
X9833D01*
X9773D02*
X9818D01*
X9557Y8158D02*
X9627D01*
X10052Y8068D02*
X10283D01*
X10292Y8142D02*
X10347D01*
X10368Y8047D02*
X10552D01*
X9833Y7387D02*
X9863Y7358D01*
X9917Y7438D02*
X9953Y7403D01*
X9778Y7108D02*
X9812Y7142D01*
X9762Y7347D02*
X9812Y7298D01*
X9833Y7617D02*
X9873Y7657D01*
X9932Y8052D02*
X9988Y7997D01*
X9932Y8153D02*
X9988Y8208D01*
X9938Y8257D02*
X9967Y8288D01*
X9663Y8057D02*
X9762Y8158D01*
X9833Y8057D02*
X9932Y7957D01*
Y7952D02*
X9958Y7927D01*
X9783Y7657D02*
X9833Y7707D01*
Y7387D02*
Y7427D01*
X9812Y7142D02*
Y7298D01*
X9833Y7457D02*
Y7617D01*
X10118Y7698D02*
X10153D01*
X9873Y7657D02*
X9927D01*
X9762Y7858D02*
X9932D01*
X9762Y7758D02*
X9932D01*
X9632Y7957D02*
X9762D01*
X10477Y7793D02*
X10637D01*
X9533Y7702D02*
X9568D01*
X10142Y7927D02*
X10158D01*
X10102D02*
X10142D01*
X9958D02*
X10102D01*
X10368Y7867D02*
X10547D01*
X9587Y7858D02*
X9632D01*
X9533Y7843D02*
X9573D01*
X9833Y7707D02*
X10033D01*
X9632Y7657D02*
X9783D01*
X10127Y7787D02*
X10167D01*
X10227Y7727D02*
X10448D01*
X9578Y7912D02*
X9623Y7957D01*
X9352Y7387D02*
X9403Y7338D01*
Y7153D02*
X9448Y7108D01*
X9538Y8137D02*
X9557Y8158D01*
X9573Y7843D02*
X9587Y7858D01*
X9538Y8238D02*
Y8328D01*
X9542D02*
Y8403D01*
X9352Y7387D02*
Y7483D01*
X9403Y7153D02*
Y7338D01*
X9538Y8033D02*
Y8137D01*
X9533Y7668D02*
Y7742D01*
X9462Y7552D02*
Y7642D01*
Y7758D02*
Y7832D01*
Y7952D02*
Y8023D01*
X9443Y8373D02*
Y8408D01*
X9863Y7358D02*
X9917D01*
X9953Y7403D02*
X9988D01*
X9688Y7448D02*
X9727D01*
X9538Y7432D02*
X9608D01*
X10158Y7573D02*
X10177D01*
X10512Y7427D02*
X10797D01*
X9983Y7483D02*
X10017D01*
X10318Y7363D02*
X10528D01*
X10438Y7532D02*
X10542D01*
X10323Y7432D02*
X10363D01*
X10387Y7457D02*
X10413D01*
X10073Y7432D02*
X10127D01*
X10153Y7457D02*
X10198D01*
X10203Y7532D02*
X10358D01*
X10458Y7628D02*
X10493D01*
X9533Y7552D02*
X9632D01*
X10802Y7363D02*
X10882D01*
X9278Y8847D02*
X9318Y8807D01*
Y8637D02*
Y8762D01*
Y8807D01*
X10062Y7102D02*
X10703D01*
X9448Y7108D02*
X9778D01*
X10738Y7278D02*
X10792D01*
X10188Y8333D02*
X10292Y8227D01*
X9297Y8552D02*
X9443Y8408D01*
X9318Y8637D02*
X9542Y8413D01*
D15*
X10642Y7608D02*
Y7872D01*
X10488Y7918D02*
X10597D01*
X10733Y7517D02*
X10788D01*
X10642Y7608D02*
X10733Y7517D01*
X10597Y7918D02*
X10642Y7872D01*
D16*
X10637Y8012D02*
Y8123D01*
X9993Y8913D02*
X10427D01*
X10453D01*
X10188Y8788D02*
X10297D01*
X9727Y8677D02*
X9833D01*
X10448Y8438D02*
Y8538D01*
X10493Y8788D02*
Y8873D01*
X10653Y8517D02*
X10792D01*
X10552Y8542D02*
X10627D01*
X10252Y8373D02*
X10283D01*
X10477Y8408D02*
X10698D01*
X9903Y8552D02*
X10068D01*
X10118Y7222D02*
Y7258D01*
X10073Y7383D02*
Y7432D01*
X10068Y8552D02*
Y8667D01*
X10448Y8142D02*
X10552D01*
X10377Y8278D02*
X10632D01*
X10552Y8142D02*
X10618D01*
X10663Y7988D02*
X10722D01*
X9927Y7548D02*
Y7562D01*
X9932Y8778D02*
Y8842D01*
X9517Y7238D02*
Y7282D01*
X9573Y7338D02*
Y7423D01*
X10283D02*
X10312D01*
X10608Y7323D02*
X10688D01*
X10627Y8542D02*
X10653Y8517D01*
X10118Y7258D02*
X10283Y7423D01*
X10512Y7227D02*
X10608Y7323D01*
X9913Y7222D02*
X10073Y7383D01*
X10283Y8373D02*
X10377Y8278D01*
X10632D02*
X10788Y8123D01*
X10448Y8438D02*
X10477Y8408D01*
X10698D02*
X10788Y8318D01*
X10618Y8142D02*
X10637Y8123D01*
Y8012D02*
X10663Y7988D01*
X10722D02*
X10792Y7918D01*
X9517Y7282D02*
X9573Y7338D01*
X9932Y8852D02*
X9993Y8913D01*
X10453D02*
X10493Y8873D01*
X10068Y8667D02*
X10188Y8788D01*
X9602Y8552D02*
X9727Y8677D01*
X9833D02*
X9932Y8778D01*
D17*
X10797Y7488D02*
Y7512D01*
X10533Y7702D02*
Y7718D01*
X10523Y7227D02*
Y7262D01*
X10148Y8193D02*
Y8208D01*
X10778Y8118D02*
X10797D01*
X10552Y8137D02*
X10578D01*
X9913Y7238D02*
Y7273D01*
X10257Y7657D02*
X10278D01*
X10422Y7727D02*
X10453D01*
X10802Y7722D02*
X10823D01*
X9688Y7448D02*
X9727D01*
D18*
X9377Y8273D02*
X9432D01*
X9377Y8182D02*
X9432D01*
X9722Y7218D02*
Y7227D01*
X9227Y7718D02*
X9292D01*
X9328Y7753D02*
X9387D01*
X9458D01*
X9227Y7923D02*
X9318D01*
X9342Y7948D02*
X9368D01*
X9382D01*
X9458D01*
X9538Y7702D02*
X9573D01*
X9533Y7938D02*
X9578Y7912D01*
X9632Y7938D02*
Y7963D01*
X9458Y7372D02*
Y7432D01*
X9432Y8182D02*
Y8193D01*
X9227Y7517D02*
X9307D01*
X9337Y7548D02*
X9382D01*
X9458D01*
X9292Y7718D02*
X9328Y7753D01*
X9307Y7517D02*
X9337Y7548D01*
X9318Y7923D02*
X9342Y7948D01*
D19*
X9392Y8782D02*
X9382Y8792D01*
X9362D01*
X9352Y8782D01*
Y8772D01*
X9362Y8762D01*
X9382D01*
X9392Y8752D01*
Y8742D01*
X9382Y8733D01*
X9362D01*
X9352Y8742D01*
X9412Y8792D02*
X9432D01*
X9422D01*
Y8733D01*
X9412D01*
X9432D01*
X9492Y8792D02*
X9472D01*
X9462Y8782D01*
Y8742D01*
X9472Y8733D01*
X9492D01*
X9502Y8742D01*
Y8782D01*
X9492Y8792D01*
X9522Y8762D02*
X9562D01*
X9612Y8733D02*
Y8792D01*
X9582Y8762D01*
X9622D01*
X9642D02*
X9682D01*
X9702Y8782D02*
X9712Y8792D01*
X9732D01*
X9742Y8782D01*
Y8742D01*
X9732Y8733D01*
X9712D01*
X9702Y8742D01*
Y8782D01*
X9762Y8733D02*
X9782D01*
X9772D01*
Y8792D01*
X9762Y8782D01*
D20*
X10488Y7918D02*
D03*
X10542Y7867D02*
D03*
Y7968D02*
D03*
X10717Y7258D02*
D03*
X10318Y7363D02*
D03*
X10528D02*
D03*
X10432Y7602D02*
D03*
X10012Y7153D02*
D03*
X9983Y7483D02*
D03*
X10153Y7622D02*
D03*
X9988Y7403D02*
D03*
X9917Y7358D02*
D03*
X9727Y7448D02*
D03*
X9762Y7347D02*
D03*
D03*
X9382Y7548D02*
D03*
X9387Y7753D02*
D03*
X9578Y7912D02*
D03*
X9573Y7702D02*
D03*
X9458Y7372D02*
D03*
X9377Y8273D02*
D03*
Y8182D02*
D03*
X9387Y7948D02*
D03*
X9352Y7483D02*
D03*
D21*
X10837Y7193D02*
D03*
X10752Y7153D02*
D03*
X9632Y8257D02*
D03*
Y8158D02*
D03*
Y8057D02*
D03*
Y7957D02*
D03*
Y7858D02*
D03*
Y7758D02*
D03*
Y7657D02*
D03*
Y7557D02*
D03*
X9932D02*
D03*
Y7657D02*
D03*
Y7758D02*
D03*
Y7858D02*
D03*
Y7957D02*
D03*
Y8057D02*
D03*
Y8158D02*
D03*
Y8257D02*
D03*
Y8358D02*
D03*
X10167Y7992D02*
D03*
Y8193D02*
D03*
D22*
X10358Y7662D02*
D03*
X10257D02*
D03*
D23*
X10828Y8828D02*
D03*
X9167Y7162D02*
D03*
D24*
X9227Y7517D02*
D03*
Y7718D02*
D03*
Y7918D02*
D03*
Y8318D02*
D03*
X9222Y8118D02*
D03*
X10502Y8788D02*
D03*
X10302D02*
D03*
X10792Y7517D02*
D03*
Y7718D02*
D03*
Y7918D02*
D03*
Y8118D02*
D03*
Y8517D02*
D03*
X10788Y8318D02*
D03*
X10512Y7222D02*
D03*
X10312D02*
D03*
X10113D02*
D03*
X9913D02*
D03*
X9512D02*
D03*
X9712Y7218D02*
D03*
D25*
X9142Y8552D02*
D03*
Y8847D02*
D03*
X9203D02*
D03*
Y8552D02*
D03*
X10552Y8142D02*
D03*
Y8542D02*
D03*
X10448Y8142D02*
D03*
Y8542D02*
D03*
X10347Y8142D02*
D03*
Y8542D02*
D03*
D26*
X9931Y8847D02*
D03*
X10068Y8552D02*
D03*
X9903D02*
D03*
X9602D02*
D03*
D27*
X9792D02*
D03*
X9802Y8847D02*
D03*
D28*
X9762Y8158D02*
D03*
Y8057D02*
D03*
Y7957D02*
D03*
Y7858D02*
D03*
Y7758D02*
D03*
D29*
X9632Y8358D02*
D03*
M02*
