%FSLAX23Y23*%
%MOIN*%
G70*
G01*
G75*
%ADD10R,0.063X0.040*%
%ADD11R,0.050X0.040*%
%ADD12R,0.040X0.063*%
%ADD13R,0.040X0.050*%
%ADD14C,0.015*%
%ADD15C,0.025*%
%ADD16C,0.030*%
%ADD17C,0.010*%
%ADD18C,0.020*%
%ADD19C,0.008*%
%ADD20C,0.050*%
%ADD21C,0.062*%
%ADD22C,0.065*%
%ADD23C,0.180*%
%ADD24C,0.125*%
%ADD25C,0.075*%
%ADD26C,0.100*%
%ADD27C,0.069*%
%ADD28C,0.070*%
%ADD29R,0.062X0.062*%
%ADD30R,0.040X0.065*%
%ADD31R,0.065X0.040*%
%ADD32C,0.040*%
%ADD33R,0.040X0.062*%
%ADD34R,0.062X0.040*%
%ADD35C,0.009*%
%ADD36C,0.012*%
%ADD37C,0.007*%
%ADD38R,0.071X0.048*%
%ADD39R,0.058X0.048*%
%ADD40R,0.048X0.071*%
%ADD41R,0.048X0.058*%
%ADD42C,0.058*%
%ADD43C,0.073*%
%ADD44C,0.188*%
%ADD45C,0.133*%
%ADD46C,0.083*%
%ADD47C,0.108*%
%ADD48C,0.077*%
%ADD49C,0.078*%
%ADD50R,0.070X0.070*%
D28*
X10837Y7193D02*
D03*
X10752Y7153D02*
D03*
X9632Y8257D02*
D03*
Y8158D02*
D03*
Y8057D02*
D03*
Y7957D02*
D03*
Y7858D02*
D03*
Y7758D02*
D03*
Y7657D02*
D03*
Y7557D02*
D03*
X9932D02*
D03*
Y7657D02*
D03*
Y7758D02*
D03*
Y7858D02*
D03*
Y7957D02*
D03*
Y8057D02*
D03*
Y8158D02*
D03*
Y8257D02*
D03*
Y8358D02*
D03*
X10167Y7992D02*
D03*
Y8193D02*
D03*
D38*
X10899Y7354D02*
D03*
Y7281D02*
D03*
X10035Y8069D02*
D03*
Y7997D02*
D03*
Y8210D02*
D03*
Y8137D02*
D03*
X10434Y7524D02*
D03*
Y7451D02*
D03*
X10200Y7524D02*
D03*
Y7451D02*
D03*
X10035Y8286D02*
D03*
Y8359D02*
D03*
D39*
X10698Y7323D02*
D03*
X10797Y7282D02*
D03*
Y7363D02*
D03*
X10257Y7827D02*
D03*
X10358Y7787D02*
D03*
Y7867D02*
D03*
X9538Y8233D02*
D03*
X9438Y8273D02*
D03*
Y8193D02*
D03*
X9443Y8368D02*
D03*
X9542Y8328D02*
D03*
Y8408D02*
D03*
X10153Y8333D02*
D03*
Y8413D02*
D03*
X10252Y8373D02*
D03*
D40*
X9835Y7450D02*
D03*
X9908D02*
D03*
X10115Y7811D02*
D03*
X10042D02*
D03*
X10115Y7615D02*
D03*
X10042D02*
D03*
X10115Y7710D02*
D03*
X10042D02*
D03*
X9535Y7840D02*
D03*
X9462D02*
D03*
Y7451D02*
D03*
X9535D02*
D03*
X9462Y7550D02*
D03*
X9535D02*
D03*
X9462Y7650D02*
D03*
X9535D02*
D03*
X9462Y7746D02*
D03*
X9535D02*
D03*
X9611Y7451D02*
D03*
X9684D02*
D03*
X9462Y7936D02*
D03*
X9535D02*
D03*
X9462Y8031D02*
D03*
X9535D02*
D03*
X10292Y8045D02*
D03*
X10365D02*
D03*
X10292Y7940D02*
D03*
X10365D02*
D03*
D41*
X10493Y7628D02*
D03*
X10533Y7727D02*
D03*
X10453D02*
D03*
X10547Y7532D02*
D03*
X10507Y7432D02*
D03*
X10587D02*
D03*
X10318D02*
D03*
X10358Y7532D02*
D03*
X10278D02*
D03*
X10073Y7432D02*
D03*
X10113Y7532D02*
D03*
X10033D02*
D03*
D42*
X10488Y7918D02*
D03*
X10542Y7867D02*
D03*
Y7968D02*
D03*
X10717Y7258D02*
D03*
X10318Y7363D02*
D03*
X10528D02*
D03*
X10432Y7602D02*
D03*
X10012Y7153D02*
D03*
X9983Y7483D02*
D03*
X10153Y7622D02*
D03*
X9988Y7403D02*
D03*
X9917Y7358D02*
D03*
X9727Y7448D02*
D03*
X9762Y7347D02*
D03*
D03*
X9382Y7548D02*
D03*
X9387Y7753D02*
D03*
X9578Y7912D02*
D03*
X9573Y7702D02*
D03*
X9458Y7372D02*
D03*
X9377Y8273D02*
D03*
Y8182D02*
D03*
X9387Y7948D02*
D03*
X9352Y7483D02*
D03*
D43*
X10358Y7662D02*
D03*
X10257D02*
D03*
D44*
X10828Y8828D02*
D03*
X9167Y7162D02*
D03*
D45*
X9227Y7517D02*
D03*
Y7718D02*
D03*
Y7918D02*
D03*
Y8318D02*
D03*
X9222Y8118D02*
D03*
X10502Y8788D02*
D03*
X10302D02*
D03*
X10792Y7517D02*
D03*
Y7718D02*
D03*
Y7918D02*
D03*
Y8118D02*
D03*
Y8517D02*
D03*
X10788Y8318D02*
D03*
X10512Y7222D02*
D03*
X10312D02*
D03*
X10113D02*
D03*
X9913D02*
D03*
X9512D02*
D03*
X9712Y7218D02*
D03*
D46*
X9142Y8552D02*
D03*
Y8847D02*
D03*
X9203D02*
D03*
Y8552D02*
D03*
X10552Y8142D02*
D03*
Y8542D02*
D03*
X10448Y8142D02*
D03*
Y8542D02*
D03*
X10347Y8142D02*
D03*
Y8542D02*
D03*
D47*
X9931Y8847D02*
D03*
X10068Y8552D02*
D03*
X9903D02*
D03*
X9602D02*
D03*
D48*
X9792D02*
D03*
X9802Y8847D02*
D03*
D49*
X9762Y8158D02*
D03*
Y8057D02*
D03*
Y7957D02*
D03*
Y7858D02*
D03*
Y7758D02*
D03*
D50*
X9632Y8358D02*
D03*
M02*
